# xmcd
#
# Track frame offsets:
#	150
#	16725
#	34219
#	50267
#	70688
#	85042
#	105002
#	117587
#	134552
#	155640
#	171893
#	192339
#	213814
#	230706
#
# Disc length: 3349 seconds
#
# Revision: 0
# Processed by: cddbd v1.5.2PL0 Copyright (c) Steve Scherf et al.
# Submitted via: EasyCDDAExtractor 10.0.1.1
#
DISCID=b50d130e
DTITLE=Terry Prince - Imagine Love
DYEAR=2006
DGENRE=Soul
TTITLE0=Imagine Love
TTITLE1=It's A Beautiful World
TTITLE2=Who's Fooling Who
TTITLE3=Stand in The Sun
TTITLE4=Remember When
TTITLE5=Without You
TTITLE6=So Beautiful
TTITLE7=It Won't Bring You Love
TTITLE8=Forever Ended Today
TTITLE9=Love Don't Need A Reason
TTITLE10=I Wish
TTITLE11=One Race
TTITLE12=Filled With Love
TTITLE13=September through September (A tribute to the fallen Soldiers due to 
TTITLE13=9/11)
EXTD=
EXTT0=
EXTT1=
EXTT2=
EXTT3=
EXTT4=
EXTT5=
EXTT6=
EXTT7=
EXTT8=
EXTT9=
EXTT10=
EXTT11=
EXTT12=
EXTT13=
PLAYORDER=
